<svg version="1.1" viewBox="0 0 24 24" xmlns="http://www.w3.org/2000/svg">
  <rect x="0" y="0" width="24" height="24" ry="6" fill="#ff0"/>
  <path d="m6.16 4.04c-.211 0-.414.0839-.563.233-.149.149-.233.352-.233.563v3.98c0 .105.0206.208.0606.305.0267.0644.0617.125.104.18.0211.0274.0439.0533.0684.0777.149.149.352.233.563.233h3.98c.211 0 .414-.0839.563-.233s.233-.352.233-.563-.0838-.414-.233-.563c-.149-.149-.352-.233-.563-.233h-2.06l.431-.431c1.29-1.25 3.02-1.95 4.81-1.96 2.87 0 4.96 1.7 5.88 3.93.922 2.23.649 4.91-1.38 6.94-2.03 2.03-4.71 2.3-6.94 1.38-2.23-.922-3.93-3.01-3.93-5.88 0-.211-.0839-.414-.233-.563s-.352-.233-.563-.233-.414.0839-.563.233c-.149.149-.233.352-.233.563 0 3.51 2.15 6.21 4.91 7.35 2.76 1.14 6.19.758 8.67-1.73 2.48-2.48 2.87-5.91 1.73-8.67-1.14-2.76-3.84-4.91-7.35-4.91h-.0031c-2.21.0083-4.33.87-5.92 2.41-.00313.00308-.00624.00619-.00933.00933l-.44.44v-2.06c0-.211-.0839-.414-.233-.563s-.352-.233-.563-.233z" stop-color="#000000"/>
  <rect transform="matrix(.795 0 0 .795 1.32 2.8)" x="4.13" y="10.6" width="13" height="10.1" rx="0" fill="#f9f9f9" stroke="#f9f9f9" stroke-linecap="round" stroke-width=".3"/>
  <path d="m5.64 10.6c-.855 0-1.56.705-1.56 1.56v.508c-.00019.0082-.00019.0164 0 .0245v5.71c0 .855.703 1.56 1.56 1.56h8.32c.855 0 1.56-.703 1.56-1.56v-5.71c2e-4-.0081 2e-4-.0163 0-.0245v-.508c0-.855-.703-1.56-1.56-1.56zm0 1.04h8.32c.297 0 .519.222.519.519v.234l-4.42 2.81c-.162.094-.359.0937-.521 0l-4.42-2.81v-.234c0-.297.222-.519.519-.519zm-.519 1.98 3.88 2.47c.00622.0039.0125.0077.0189.0114.483.281 1.08.281 1.57 0 .0063-.0037.0126-.0075.0188-.0114l3.87-2.47v4.77c0 .297-.222.519-.519.519h-8.32c-.297 0-.519-.222-.519-.519z" fill="#1a1a1a" stop-color="#000000"/>
</svg>
