<svg version="1.1" viewBox="0 0 24 24" xmlns="http://www.w3.org/2000/svg">
  <rect transform="matrix(.836 0 0 .836 1.97 1.93)" x="-.0442" y=".0884" width="24" height="23.9" ry="5.97" fill="#ff0"/>
  <path transform="matrix(.803 0 0 .803 3.14 2.31)" d="m3 2a1 1 0 00-1 1v5a1 1 0 00.0762.383 1 1 0 00.131.227 1 1 0 00.0859.0977 1 1 0 00.707.293h5a1 1 0 001-1 1 1 0 00-1-1h-2.59l.541-.541c1.62-1.57 3.79-2.45 6.04-2.46 3.61 0 6.23 2.14 7.39 4.94 1.16 2.8.815 6.17-1.73 8.72s-5.92 2.89-8.72 1.73c-2.8-1.16-4.94-3.78-4.94-7.39a1 1 0 00-1-1 1 1 0 00-1 1c0 4.41 2.71 7.8 6.17 9.24 3.47 1.44 7.78.952 10.9-2.17 3.12-3.12 3.6-7.43 2.17-10.9-1.44-3.47-4.83-6.17-9.24-6.17a1 1 0 00-.0039 0c-2.77.0104-5.44 1.09-7.43 3.02a1 1 0 00-.0117.0117l-.553.553v-2.59a1 1 0 00-1-1z" stop-color="#000000" stroke="#fff" stroke-width=".5"/>
  <rect transform="matrix(.802 0 0 .802 1.62 2.72)" x="4.13" y="10.6" width="13" height="10.1" rx="0" fill="#f9f9f9" stroke="#f9f9f9" stroke-linecap="round" stroke-width=".3"/>
  <path transform="matrix(.524 0 0 .524 3.87 9.03)" d="m4 3c-1.64 0-3 1.36-3 3v.977a1 1 0 000 .0472v11c0 1.64 1.35 3 3 3h16c1.64 0 3-1.35 3-3v-11a1 1 0 000-.0472v-.977c0-1.64-1.35-3-3-3zm0 2h16c.571 0 .999.428.999.999v.451l-8.5 5.41c-.311.181-.691.18-1 0l-8.5-5.41v-.451c0-.571.428-.999.999-.999zm-.999 3.82 7.46 4.75a1 1 0 00.0363.0218c.93.54 2.08.54 3.01 0a1 1 0 00.0363-.0218l7.45-4.75v9.18c0 .571-.428.999-.999.999h-16c-.571 0-.999-.428-.999-.999z" fill="#1a1a1a" stop-color="#000000" stroke="#f9f9f9" stroke-width=".459"/>
</svg>
